<svg xmlns="http://www.w3.org/2000/svg" width="128" height="128" viewBox="0 0 128 128">
  <!-- 背景圆形 -->
  <circle cx="64" cy="64" r="60" fill="#6750A4"/>
  
  <!-- 调色板图标 -->
  <g transform="translate(32, 32)">
    <path fill="#FFFFFF" d="M32,0C14.33,0,0,14.33,0,32c0,17.67,14.33,32,32,32c1.77,0,3.2-1.43,3.2-3.2c0-0.84-0.33-1.6-0.87-2.16c-0.52-0.56-0.84-1.3-0.84-2.11c0-1.77,1.43-3.2,3.2-3.2h3.77c10.59,0,19.17-8.58,19.17-19.17C59.63,15.29,47.27,0,32,0zM12.8,32c-2.95,0-5.33-2.39-5.33-5.33s2.39-5.33,5.33-5.33s5.33,2.39,5.33,5.33S15.75,32,12.8,32zM22.4,18.13c-2.95,0-5.33-2.39-5.33-5.33s2.39-5.33,5.33-5.33s5.33,2.39,5.33,5.33S25.35,18.13,22.4,18.13zM41.6,18.13c-2.95,0-5.33-2.39-5.33-5.33s2.39-5.33,5.33-5.33s5.33,2.39,5.33,5.33S44.55,18.13,41.6,18.13zM51.2,32c-2.95,0-5.33-2.39-5.33-5.33s2.39-5.33,5.33-5.33s5.33,2.39,5.33,5.33S54.15,32,51.2,32z"/>
  </g>
</svg>
